<?xml version="1.0" encoding="UTF-8"?>
<svg id="Layer_2" xmlns="http://www.w3.org/2000/svg" viewBox="0 0 160 160">
  <defs>
    <style>
      .cls-1, .cls-2 {
        fill: #431b4a;
      }

      .cls-3 {
        fill: #fa65a9;
      }

      .cls-3, .cls-4, .cls-5, .cls-6, .cls-7, .cls-8, .cls-9, .cls-10, .cls-2, .cls-11 {
        fill-rule: evenodd;
      }

      .cls-4 {
        fill: #0a84a0;
      }

      .cls-12 {
        fill: #fdcc61;
      }

      .cls-5 {
        stroke: #d4f4ab;
      }

      .cls-5, .cls-9 {
        fill: none;
        stroke-linecap: round;
        stroke-linejoin: round;
        stroke-width: 4px;
      }

      .cls-13 {
        fill: #fb8f46;
      }

      .cls-6 {
        fill: #74e4f8;
      }

      .cls-7 {
        fill: #81cb2f;
      }

      .cls-8 {
        fill: #a3d968;
      }

      .cls-9 {
        stroke: #c2f9ff;
      }

      .cls-10 {
        fill: #fba882;
      }

      .cls-14 {
        fill: #fddf64;
      }

      .cls-11 {
        fill: #de366f;
      }
    </style>
  </defs>
  <g id="Layer_1-2" data-name="Layer_1">
    <g>
      <g>
        <g>
          <rect class="cls-12" x="4" y="4" width="152" height="152"/>
          <path class="cls-13" d="M152,8v144H8V8h144M160,0H0v160h160V0h0Z"/>
        </g>
        <g>
          <polygon class="cls-14" points="8.56 8 7.89 8 7.89 57.85 16.47 57.85 16.47 16.59 59.57 16.59 59.57 8 16.47 8 8.56 8"/>
          <rect class="cls-14" x="68.42" y="8" width="18.67" height="8.59"/>
          <rect class="cls-14" x="95.79" y="8" width="9.18" height="8.59"/>
          <rect class="cls-14" x="7.89" y="65.47" width="8.59" height="18.67"/>
          <rect class="cls-14" x="7.89" y="92.84" width="8.59" height="9.18"/>
        </g>
      </g>
      <path class="cls-11" d="M66.05,124.82c5.05,1.64,8.92,2.82,11.74,3.86,5.05-.89,9.81-2.08,14.12-3.57-10.7-7.13-23.19-12.04-26.61-7.73-1.93,2.23-1.64,5.65.74,7.43h0Z"/>
      <path class="cls-11" d="M89.92,124.82c-5.05,1.64-8.92,2.82-11.89,3.86-4.91-.89-9.66-2.08-13.97-3.57,10.55-7.13,23.19-12.04,26.61-7.73,1.93,2.23,1.49,5.65-.74,7.43h0Z"/>
      <path class="cls-4" d="M26.84,72.95c-.59,16.2-2.38,17.39,3.86,29.28,12.93,24.53,83.84,24.53,96.62,0,6.24-11.89,4.61-13.08,4.01-29.28.45-14.57,2.23-17.39-4.01-29.13-12.78-24.53-83.69-24.53-96.62,0-6.09,11.74-4.46,14.57-3.86,29.13h0Z"/>
      <g>
        <path class="cls-7" d="M97.76,30.24c-9.24,0-15.87-1.83-18.25-5.02.08-7.9,17.2-19.88,28.04-23.29,2.92-.95,5.89-1.43,8.82-1.43,7,0,13.17,2.8,16.54,7.5.06,8.33-6.87,16.43-16.9,19.73-4.77,1.54-11.77,2.5-18.26,2.5Z"/>
        <path class="cls-1" d="M116.38,0v1h0c6.77,0,12.74,2.67,16.04,7.17-.03,8.06-6.79,15.88-16.55,19.09-4.72,1.53-11.66,2.48-18.11,2.48-8.81,0-15.4-1.74-17.74-4.68.33-7.57,17.3-19.39,27.7-22.65,2.87-.93,5.78-1.4,8.66-1.4V0M116.38,0c-2.9,0-5.94.47-8.97,1.45-10.41,3.27-28.54,15.46-28.39,23.93,2.7,3.85,10.51,5.35,18.74,5.35,6.7,0,13.68-1,18.42-2.53,10.41-3.42,17.39-11.89,17.24-20.36C129.93,2.86,123.57,0,116.38,0h0Z"/>
      </g>
      <g>
        <path class="cls-7" d="M60.41,30.24c-6.49,0-13.48-.96-18.25-2.51-10.04-3.25-16.96-11.35-16.9-19.73C28.53,3.3,34.69.5,41.78.5c2.95,0,5.92.48,8.84,1.43,10.79,3.39,27.82,15.38,27.9,23.3-2.3,3.19-8.89,5.01-18.11,5.01h0Z"/>
        <path class="cls-1" d="M41.78,1c2.9,0,5.82.47,8.7,1.4,10.33,3.25,27.22,15.07,27.54,22.66-2.27,2.93-8.81,4.67-17.61,4.67-6.44,0-13.37-.95-18.09-2.48-9.77-3.16-16.53-10.99-16.55-19.1,3.2-4.49,9.16-7.16,16.02-7.16M41.78,0C34.56,0,28.15,2.86,24.76,7.84c-.15,8.47,6.69,16.95,17.24,20.36,4.74,1.53,11.72,2.53,18.4,2.53,8.22,0,15.99-1.5,18.61-5.35.15-8.47-17.84-20.66-28.24-23.93C47.74.47,44.69,0,41.78,0h0Z"/>
      </g>
      <path class="cls-8" d="M79.02,25.38c.15-8.47-17.84-20.66-28.24-23.93-10.55-3.42-21.26-.59-26.01,6.39l54.26,17.54Z"/>
      <path class="cls-8" d="M79.02,25.38c-.15-8.47,17.99-20.66,28.39-23.93,10.55-3.42,21.11-.59,26.01,6.39l-54.4,17.54Z"/>
      <path class="cls-11" d="M104.01,109.27c-5.87-19.27-15.46-36.36-24.03-34.91-.3.05-.6.11-.89.19-.29-.08-.59-.14-.89-.19-8.58-1.45-18.16,15.64-24.03,34.91-15.99,8.07-30.53,20.03-26.93,27.49,1.74,3.5,6.16,5.18,9.89,3.25,5.69-5.01,9.55-8.7,12.62-11.52-2.38,15.53-1.21,28.9,6.12,31.08,4.94,1.56,9.87-1.3,11.43-6.24.4-20.14-.64-27.68,1.28-35.35,2.83-.74,6.25-1.52,10.52-2.44,4.27.93,7.69,1.7,10.52,2.44,1.92,7.67.88,15.21,1.28,35.35,1.56,4.94,6.49,7.79,11.43,6.24,7.33-2.18,8.5-15.55,6.12-31.08,3.07,2.82,6.92,6.51,12.62,11.52,3.73,1.93,8.14.25,9.89-3.25,3.59-7.46-10.95-19.42-26.93-27.49ZM79.09,100.88c-.91-.09-1.78-.14-2.6-.14.8-1.4,1.66-2.88,2.6-4.49.94,1.61,1.8,3.09,2.6,4.49-.82,0-1.69.05-2.6.14Z"/>
      <path class="cls-3" d="M56.85,139.1c1.03,4.55,7.23,9.34,21.14,9.35,14.36,0,22.28-4.52,23.37-9.35,1.37-5.89-2.62-27.04-22.32-26.91-19.58-.13-23.69,21.02-22.19,26.91h0Z"/>
      <path class="cls-6" d="M26.87,77.1c-.59,14.33-2.38,15.43,3.86,25.91,12.93,21.77,83.84,21.77,96.62,0,6.24-10.47,4.61-11.58,4.01-25.91.45-12.95,2.23-15.43-4.01-25.91-12.78-21.77-83.69-21.77-96.62,0-6.09,10.47-4.46,12.95-3.86,25.91h0Z"/>
      <path class="cls-10" d="M36.14,86.81c-.45,10.97-1.78,11.73,3.12,19.95,10.26,16.75,67.04,16.75,77.29,0,5.05-8.23,3.72-8.99,3.27-19.95.3-10.05,1.78-12.03-3.27-20.11-10.26-16.6-67.04-16.6-77.29,0-4.91,8.07-3.57,10.05-3.12,20.11h0Z"/>
      <path class="cls-3" d="M50.18,114.12c6.39,0,11.45-3.27,11.45-7.28s-5.05-7.28-11.45-7.28-11.3,3.27-11.3,7.28,5.05,7.28,11.3,7.28h0Z"/>
      <path class="cls-3" d="M107.85,114.12c6.39,0,11.45-3.27,11.45-7.28s-5.05-7.28-11.45-7.28-11.3,3.27-11.3,7.28,5.05,7.28,11.3,7.28h0Z"/>
      <path class="cls-1" d="M79.1,28.89c21.99,0,40.22,6.57,45.37,16.39,4.59,8.57,4.43,11.44,3.94,19.96-.12,2.1-.26,4.49-.34,7.33,0,.09,0,.18,0,.27.11,3.04.26,5.52.39,7.71.55,9.28.65,10.95-4,19.73-5.14,9.78-23.37,16.36-45.36,16.36s-40.28-6.58-45.48-16.37c-4.56-8.61-4.44-10.45-3.88-19.27.14-2.3.31-4.9.43-8.16,0-.1,0-.21,0-.31-.11-2.62-.25-4.86-.37-6.84-.56-8.99-.73-11.7,3.82-20.41,5.2-9.79,23.48-16.37,45.48-16.37M79.1,24.89c-21.22,0-42.46,6.17-49.01,18.5-6.18,11.81-4.52,14.65-3.92,29.3-.6,16.29-2.41,17.49,3.92,29.45,6.55,12.33,27.79,18.5,49.01,18.5s42.42-6.17,48.9-18.5c6.33-11.96,4.67-13.15,4.07-29.45.45-14.65,2.26-17.49-4.07-29.3-6.48-12.33-27.68-18.5-48.9-18.5h0Z"/>
      <path class="cls-1" d="M117.91,4c5.52,0,10.37,1.91,13.28,5.17-.61,6.34-6.58,12.6-14.7,15.22-1.67.53-3.76,1.02-6.04,1.4-1.8.3-3.16,1.78-3.32,3.59-.16,1.81.92,3.51,2.64,4.12,8.21,2.94,13.89,7.01,16.45,11.79,4.66,8.56,4.49,11.42,4,19.93-.12,2.1-.26,4.49-.35,7.33,0,.09,0,.18,0,.28.11,3.04.26,5.52.39,7.71.56,9.26.66,10.93-4.06,19.7-2.25,4.21-7.02,7.93-13.81,10.76-1.38.58-2.33,1.87-2.45,3.37-.12,1.49.6,2.93,1.87,3.72,12.89,8.05,17.22,14.71,16.2,16.9-.57,1.1-1.81,1.84-3.1,1.84-.41,0-.8-.07-1.19-.22-4.03-3.5-7.16-6.37-9.7-8.69-.94-.86-1.81-1.66-2.63-2.4-.75-.68-1.71-1.03-2.68-1.03-.65,0-1.3.16-1.9.48-1.49.8-2.31,2.46-2.05,4.14,2.62,16.85.08,25.61-3.39,26.63-.02,0-.04.01-.06.02-.53.16-1.06.25-1.59.25-2.11,0-4.01-1.35-4.86-3.4,0-.48-.02-.94-.02-1.41-.02-1.19-.56-2.3-1.49-3.05-.72-.58-1.61-.89-2.51-.89-.26,0-.52.03-.78.08-3.7.74-7.89,1.11-12.51,1.11-3.64,0-6.98-.27-9.92-.8-.24-.04-.47-.06-.71-.06-.92,0-1.82.32-2.54.91-.91.74-1.44,1.85-1.46,3.02,0,.36-.01.72-.02,1.09-.86,2.05-2.76,3.4-4.86,3.4-.53,0-1.06-.08-1.59-.25-.02,0-.04-.01-.06-.02-3.47-1.02-6.02-9.78-3.39-26.63.26-1.67-.56-3.33-2.05-4.14-.6-.32-1.25-.48-1.9-.48-.97,0-1.93.35-2.68,1.03-.82.74-1.69,1.53-2.63,2.4-2.53,2.32-5.67,5.19-9.7,8.69-.38.14-.78.22-1.19.22-1.29,0-2.53-.74-3.1-1.84-1.06-2.28,3.52-9.17,17.09-17.45,1.27-.77,2-2.19,1.91-3.67-.09-1.48-1-2.79-2.36-3.4-6.15-2.75-10.53-6.29-12.66-10.24-4.63-8.6-4.51-10.43-3.94-19.24.15-2.3.31-4.9.44-8.16,0-.11,0-.21,0-.32-.11-2.62-.25-4.87-.38-6.84-.57-8.97-.74-11.68,3.88-20.39,2.58-4.77,8.29-8.84,16.53-11.78,1.72-.61,2.8-2.31,2.64-4.12-.16-1.81-1.53-3.29-3.32-3.59-2.28-.38-4.36-.86-6.03-1.4-8.28-2.64-14.13-8.79-14.7-15.25,2.82-3.24,7.67-5.15,13.26-5.15,2.64,0,5.31.42,7.97,1.27,11.03,3.41,25.54,14.55,25.88,19.87.13,2.11,1.93,3.75,4.04,3.75s3.86-1.64,3.99-3.74c.34-5.3,14.94-16.44,26.06-19.88,2.63-.84,5.29-1.26,7.91-1.26M117.91,0C114.96,0,111.88.47,108.79,1.45c-10.38,3.21-28.3,14.99-28.84,23.44-.02,0-.03,0-.05,0-.54-8.45-18.31-20.23-28.69-23.44C48.12.47,45.03,0,42.06,0c-7.34,0-13.85,2.86-17.3,7.84-.15,8.47,6.8,16.95,17.53,20.36,1.89.6,4.14,1.12,6.58,1.53-8.63,3.08-15.45,7.63-18.7,13.65-6.28,11.81-4.59,14.65-3.98,29.3-.61,16.29-2.45,17.49,3.98,29.45,2.71,5.02,7.9,9.02,14.55,11.99-12.31,7.51-21.56,16.57-18.58,22.64,1.26,2.49,3.9,4.06,6.69,4.06,1.13,0,2.28-.26,3.37-.81,5.79-5.01,9.71-8.7,12.83-11.52-2.42,15.53-1.23,28.9,6.22,31.08.93.29,1.86.43,2.77.43,3.99,0,7.56-2.64,8.85-6.66.01-.6.02-1.18.03-1.76,3.03.55,6.55.86,10.63.87.02,0,.03,0,.05,0,5.1,0,9.5-.44,13.25-1.19.01.68.02,1.37.04,2.08,1.29,4.02,4.86,6.66,8.85,6.66.91,0,1.84-.14,2.77-.43,7.46-2.18,8.64-15.55,6.22-31.08,3.12,2.82,7.04,6.51,12.83,11.52,1.09.56,2.24.81,3.37.81,2.78,0,5.42-1.57,6.69-4.06,2.9-5.92-5.82-14.68-17.66-22.07,7.27-3.03,12.94-7.22,15.8-12.56,6.43-11.96,4.75-13.15,4.13-29.45.46-14.65,2.3-17.49-4.13-29.3-3.21-6.02-10-10.57-18.61-13.65,2.45-.41,4.7-.93,6.59-1.53,10.58-3.42,17.68-11.89,17.53-20.36C131.68,2.86,125.22,0,117.91,0h0Z"/>
      <g>
        <g>
          <path class="cls-2" d="M59.89,89.91c-1.59,0-2.89-1.3-2.89-2.89v-11.67c0-1.59,1.3-2.89,2.89-2.89s2.89,1.3,2.89,2.89v11.67c0,1.59-1.3,2.89-2.89,2.89Z"/>
          <path class="cls-1" d="M59.89,74.46c.48,0,.89.41.89.89v11.67c0,.48-.41.89-.89.89s-.89-.41-.89-.89v-11.67c0-.48.41-.89.89-.89M59.89,70.46c-2.69,0-4.89,2.2-4.89,4.89v11.67c0,2.69,2.2,4.89,4.89,4.89s4.89-2.2,4.89-4.89v-11.67c0-2.69-2.2-4.89-4.89-4.89h0Z"/>
        </g>
        <g>
          <path class="cls-2" d="M96.11,89.91c-1.59,0-2.89-1.3-2.89-2.89v-11.67c0-1.59,1.3-2.89,2.89-2.89s2.89,1.3,2.89,2.89v11.67c0,1.59-1.3,2.89-2.89,2.89Z"/>
          <path class="cls-1" d="M96.11,74.46c.48,0,.89.41.89.89v11.67c0,.48-.41.89-.89.89s-.89-.41-.89-.89v-11.67c0-.48.41-.89.89-.89M96.11,70.46c-2.69,0-4.89,2.2-4.89,4.89v11.67c0,2.69,2.2,4.89,4.89,4.89s4.89-2.2,4.89-4.89v-11.67c0-2.69-2.2-4.89-4.89-4.89h0Z"/>
        </g>
      </g>
      <path class="cls-9" d="M64.78,42.37s-16.19-2.37-29.15,10.67"/>
      <path class="cls-5" d="M101,15.37s6.45-8.85,19.32-7.37"/>
    </g>
  </g>
</svg>