<?xml version="1.0" encoding="UTF-8"?>
<svg id="Layer_2" xmlns="http://www.w3.org/2000/svg" viewBox="0 0 160 160">
  <defs>
    <style>
      .cls-1 {
        fill: #fdcc61;
      }

      .cls-2 {
        fill: #de366f;
        stroke: #431b4a;
        stroke-miterlimit: 10;
      }

      .cls-2, .cls-3 {
        stroke-width: 8px;
      }

      .cls-4 {
        fill: #fb8f46;
      }

      .cls-3 {
        fill: none;
        stroke: #fa65a9;
        stroke-linecap: round;
        stroke-linejoin: round;
      }

      .cls-5 {
        fill: #fddf64;
      }
    </style>
  </defs>
  <g id="Layer_1-2" data-name="Layer_1">
    <g>
      <g>
        <g>
          <rect class="cls-1" x="4" y="4" width="152" height="152"/>
          <path class="cls-4" d="M152,8v144H8V8h144M160,0H0v160h160V0h0Z"/>
        </g>
        <g>
          <polygon class="cls-5" points="8.56 8 7.89 8 7.89 57.85 16.47 57.85 16.47 16.59 59.57 16.59 59.57 8 16.47 8 8.56 8"/>
          <rect class="cls-5" x="68.42" y="8" width="18.67" height="8.59"/>
          <rect class="cls-5" x="95.79" y="8" width="9.18" height="8.59"/>
          <rect class="cls-5" x="7.89" y="65.47" width="8.59" height="18.67"/>
          <rect class="cls-5" x="7.89" y="92.84" width="8.59" height="9.18"/>
        </g>
      </g>
      <circle class="cls-2" cx="80" cy="80" r="35.7"/>
      <path class="cls-3" d="M56.74,81.19c0-14.2,11.51-25.7,25.7-25.7"/>
    </g>
  </g>
</svg>